<?xml version="1.0" encoding="UTF-8" standalone="no"?>
<svg
   width="256.033mm"
   height="341.377mm"
   viewBox="0 0 3024 4032"
   version="1.1"
   id="svg2344"
   sodipodi:docname="KwesiTheDev-Logo.svg"
   inkscape:version="1.2.2 (b0a8486, 2022-12-01)"
   xmlns:inkscape="http://www.inkscape.org/namespaces/inkscape"
   xmlns:sodipodi="http://sodipodi.sourceforge.net/DTD/sodipodi-0.dtd"
   xmlns="http://www.w3.org/2000/svg"
   xmlns:svg="http://www.w3.org/2000/svg">
  <defs
     id="defs2348" />
  <sodipodi:namedview
     id="namedview2346"
     pagecolor="#505050"
     bordercolor="#eeeeee"
     borderopacity="1"
     inkscape:showpageshadow="0"
     inkscape:pageopacity="0"
     inkscape:pagecheckerboard="0"
     inkscape:deskcolor="#505050"
     inkscape:document-units="mm"
     showgrid="false"
     inkscape:zoom="0.50533084"
     inkscape:cx="483.84144"
     inkscape:cy="645.12192"
     inkscape:window-width="1440"
     inkscape:window-height="872"
     inkscape:window-x="1718"
     inkscape:window-y="1108"
     inkscape:window-maximized="0"
     inkscape:current-layer="svg2344" />
  <path
     id="Selection"
     fill="none"
     stroke="#000000"
     stroke-width="2.75059"
     d="m 1624.5189,943.93685 c 14.1656,-22.5824 47.4752,-24.3977 71.6254,-25.1129 43.5693,-1.2653 81.9401,26.6532 112.6642,54.4067 15.5683,14.083 27.4509,23.0774 38.5082,41.72645 14.3306,2.6956 20.2444,13.918 28.8812,24.7829 10.8649,13.7254 41.5064,51.271 47.5027,65.9866 1.4028,5.5287 0.8527,8.1968 0,13.753 16.6686,8.4718 15.8434,19.2266 26.4332,33.0071 0,0 15.7334,19.2541 15.7334,19.2541 17.0261,24.6453 33.3646,67.0594 40.9838,96.2707 0,0 5.5012,-2.7506 5.5012,-2.7506 0,0 2.7505,2.7506 2.7505,2.7506 -3.4657,10.2321 -2.0354,11.855 5.5012,19.2541 0,0 0,-8.2518 0,-8.2518 15.1558,29.0462 25.0854,59.8529 35.5927,90.7695 0,0 9.5995,24.7553 9.5995,24.7553 0,0 24.5078,90.7695 24.5078,90.7695 3.2457,10.1497 7.9217,27.2858 13.2028,35.7302 7.6742,12.2676 18.429,17.7138 21.0145,33.0345 4.7035,28.0011 -14.248,36.4454 -16.2009,52.2613 0,0 8.0042,74.2659 8.0042,74.2659 -0.4126,15.9809 2.5305,18.5115 6.2988,32.8971 0,0 4.7585,30.3665 4.7585,30.3665 0,0 6.1064,19.2541 6.1064,19.2541 1.2927,5.6387 2.9431,40.8188 1.7328,46.65 -4.1534,19.8593 -34.1898,37.298 -54.1041,35.3176 -12.0201,-1.1827 -39.3334,-14.4406 -52.2612,-19.3916 -7.1515,-2.7506 -17.5488,-4.7036 -22.1698,-11.1399 -5.6112,-7.8392 -0.6326,-13.3954 -3.6858,-26.6808 -5.6662,-24.7003 -4.1258,-22.1972 -4.4009,-46.76 0,0 -5.5012,-55.0118 -5.5012,-55.0118 0,0 -2.2555,-24.7278 -2.2555,-24.7278 -1.1277,-13.753 2.7231,-32.8421 -11.855,-41.2314 -12.4052,-7.124 -45.5223,1.0177 -60.1554,2.4756 0,0 -68.7648,5.7212 -68.7648,5.7212 -29.1287,0.1375 -24.5903,4.566 -46.76,9.5445 0,0 -30.2565,1.9255 -30.2565,1.9255 0,0 -33.0071,2.8606 -33.0071,2.8606 -11.3599,1.5678 -15.7884,6.4088 -27.5059,2.1729 0,0 8.2518,-5.5011 8.2518,-5.5011 0,0 -19.2542,7.4816 -19.2542,7.4816 0,0 -33.007,2.5855 -33.007,2.5855 -9.6821,0.9077 -44.202,16.4485 -48.9881,24.8103 -1.3753,3.9334 -0.6601,10.3148 0,14.6607 0,0 -6.0238,68.7372 -6.0238,68.7372 0,0 8.2518,2.7506 8.2518,2.7506 -2.9431,34.3274 3.2732,33.8598 7.4541,60.513 0,0 15.7884,132.0284 15.7884,132.0284 1.3753,12.3776 6.4914,25.828 6.1888,38.5082 -0.1925,8.9945 -4.841,17.4113 -9.682,24.7553 -5.8588,8.8569 -17.4938,24.2327 -27.561,27.9185 -16.8061,6.1338 -33.2546,-5.6662 -47.2001,-12.7077 0,0 -27.5059,-12.4602 -27.5059,-12.4602 0,0 5.5012,-2.7506 5.5012,-2.7506 0,0 0,-2.338 0,-2.338 0,0 -18.759,0 -18.759,0 -14.9908,-5.1711 -11.47,-44.9171 -11.4975,-58.175 0,0 -7.9492,-115.5248 -7.9492,-115.5248 0,0 0,-121.0259 0,-121.0259 0,0 0,-29.1013 0,-29.1013 0,0 -5.8038,-83.6729 -5.8038,-83.6729 0,0 0,-41.2589 0,-41.2589 0,0 5.5012,2.7506 5.5012,2.7506 0,0 -4.8685,-41.2589 -4.8685,-41.2589 0,0 4.1534,-19.2541 4.1534,-19.2541 0,0 6.7389,-55.0118 6.7389,-55.0118 0,0 -2.9981,-30.2565 -2.9981,-30.2565 0,0 5.0611,-41.2588 5.0611,-41.2588 0,0 0,-60.513 0,-60.513 0,0 10.8373,-79.5196 10.8373,-79.5196 0,0 4.0709,-38.7558 4.0709,-38.7558 0,0 7.124,-24.7553 7.124,-24.7553 0,0 8.3893,-52.2612 8.3893,-52.2612 0,0 -5.5012,0 -5.5012,0 0,0 9.462,-44.0095 9.462,-44.0095 0,0 17.9339,-50.6659 17.9339,-50.6659 0,0 -2.6406,-15.3483 -2.6406,-15.3483 15.5409,-14.9357 7.7567,-17.24625 15.3208,-33.00705 3.9884,-8.3068 29.2388,-34.1624 37.408,-38.0132 4.4835,-1.4028 5.2262,-0.3301 7.7842,0 z m 750.9112,-22.4998 c 11.0849,-1.4579 47.9428,-3.6033 57.7624,-1.7329 16.9711,3.2457 31.6043,12.5702 46.76,20.3269 19.6667,10.0396 28.9637,13.4503 42.4966,30.724 10.5898,13.5054 24.0952,17.6863 23.5176,35.95035 12.2126,2.723 17.0812,14.303 22.9399,24.7553 0,0 37.7931,60.513 37.7931,60.513 10.1222,12.5977 26.8733,37.463 32.8421,52.2612 4.786,11.8 2.7231,12.6252 10.5072,27.5059 0,0 35.8402,60.513 35.8402,60.513 0,0 10.0397,24.7553 10.0397,24.7553 0,0 10.5072,19.2541 10.5072,19.2541 0,0 23.4351,49.5106 23.4351,49.5106 0,0 40.3236,88.0189 40.3236,88.0189 5.8038,15.1558 10.5348,19.0891 12.3227,35.7577 12.9277,3.8783 13.8629,29.6239 17.4662,41.2589 0,0 23.1325,96.2706 23.1325,96.2706 0,0 3.4107,33.0071 3.4107,33.0071 1.8154,0.5226 2.6406,-0.6326 5.1986,2.118 4.731,5.0886 8.2518,39.746 7.6742,47.3926 0,0 -2.6681,60.513 -2.6681,60.513 0,0 -7.0415,41.2589 -7.0415,41.2589 0,0 -5.9963,22.0047 -5.9963,22.0047 0,0 -6.5464,49.5106 -6.5464,49.5106 0,0 -8.9669,22.0048 -8.9669,22.0048 0,0 -5.6387,21.8947 -5.6387,21.8947 0,0 -16.9712,30.3665 -16.9712,30.3665 0,0 -8.0867,27.5059 -8.0867,27.5059 0,0 -22.9399,49.4831 -22.9399,49.4831 -7.4816,13.5879 -19.3642,23.8751 -28.3036,36.2528 -6.3264,8.7469 -4.8961,13.4229 -15.3483,26.9833 0,0 -27.0108,26.9008 -27.0108,26.9008 -11.9376,13.3953 -22.0322,28.4961 -36.1428,39.6635 -17.1912,13.6154 -19.9968,10.0671 -33.0071,19.4741 -14.1105,10.1772 -37.1329,25.553 -55.0118,27.1759 0,0 -24.7553,-3.1357 -24.7553,-3.1357 0,0 2.7506,8.2518 2.7506,8.2518 -49.2906,-8.9669 -57.1297,-10.6998 -101.7718,-34.905 -15.5134,-8.4168 -29.2388,-14.8807 -41.2589,-28.3586 0,0 5.5012,-2.7506 5.5012,-2.7506 0,0 0,-2.7506 0,-2.7506 0,0 -11.0024,0 -11.0024,0 -2.9156,-11.5525 -15.5958,-22.3898 -21.8121,-33.0071 -6.2714,-10.7273 -17.9614,-39.8285 -22.1973,-52.2612 0,0 -24.7278,-77.0165 -24.7278,-77.0165 0,0 -4.2909,-22.0047 -4.2909,-22.0047 -3.1357,-12.0201 -6.9315,-13.5054 -11.6625,-35.7577 -5.5287,-25.9931 -1.7604,-28.9087 -4.2084,-44.0095 0,0 -12.5427,-49.5106 -12.5427,-49.5106 -3.1357,-15.7609 -0.083,-20.0243 -1.8429,-30.2565 0,0 -6.9315,-24.6453 -6.9315,-24.6453 -4.621,-20.4644 -6.849,-42.5241 -8.3068,-63.3736 0,0 -4.786,-35.7576 -4.786,-35.7576 0,0 -3.4383,-49.5107 -3.4383,-49.5107 -1.5953,-13.863 -5.0886,-27.8359 0,-41.2588 0,0 2.9707,8.2517 2.9707,8.2517 -2.9707,-21.8396 -10.1497,-19.3641 -8.967,-52.2612 1.4579,-39.746 -1.9804,-21.9772 -4.841,-44.0094 0,0 0,-27.5059 0,-27.5059 0,0 -5.4462,-71.5154 -5.4462,-71.5154 0,0 -4.2634,-123.7765 -4.2634,-123.7765 0,0 1.4028,-46.7601 1.4028,-46.7601 0,0 -2.6405,-52.2612 -2.6405,-52.2612 -0.1101,-37.1055 7.3715,-36.8304 8.1417,-57.7624 0,0 -2.118,-30.2565 -2.118,-30.2565 0,0 1.9805,-24.7553 1.9805,-24.7553 0.3576,-4.5385 0,-11.415 1.8154,-15.4858 0,0 23.1874,-25.77315 23.1874,-25.77315 25.1679,2.5031 12.9553,-11.3599 33.0621,-14.138 9.6271,-1.3478 20.2719,3.3007 30.2015,4.676 4.3184,0.5776 19.6392,4.5935 22.2523,1.5954 3.9333,-4.4835 -5.0611,-10.4798 -5.7487,-30.6416 0,0 11.0023,2.7506 11.0023,2.7506 0,0 16.5036,-22.0048 16.5036,-22.0048 0,0 -5.5012,-5.5011 -5.5012,-5.5011 z M 1077.1514,1433.0469 c -3.5757,-18.4565 7.9492,-44.5871 11.9101,-63.2636 2.7231,-12.8178 1.7879,-28.001 1.8429,-41.2589 0,0 3.1081,-38.9758 3.1081,-38.9758 0,0 -2.8606,-49.0431 -2.8606,-49.0431 0,0 6.2714,-44.0094 6.2714,-44.0094 0,0 -3.6583,-38.5083 -3.6583,-38.5083 0,0 10.0121,-77.0165 10.0121,-77.0165 0,0 2.283,-33.0071 2.283,-33.0071 5.9413,-19.9143 30.9717,-36.9129 47.8603,-47.0901 7.2616,-4.37345 13.3679,-9.13195 22.2523,-9.32455 14.5781,-0.3576 44.1194,26.65325 49.2906,40.02115 2.338,7.0415 0.5226,16.9436 0,24.6453 -0.6877,27.5334 -9.6271,53.0864 -15.0458,79.7671 -3.6858,18.1814 -1.2652,36.5279 -1.5953,55.0118 0,0 0,52.2612 0,52.2612 0,0 -2.2555,41.2589 -2.2555,41.2589 0,0 4.841,27.5059 4.841,27.5059 0,0 -6.0513,66.0142 -6.0513,66.0142 0,0 -7.069,22.0047 -7.069,22.0047 0,0 -3.7408,24.7553 -3.7408,24.7553 -2.448,12.9828 -16.6135,40.1036 -23.6551,52.0137 0,0 -34.0523,46.1824 -34.0523,46.1824 0,0 -15.4308,15.4033 -15.4308,15.4033 0,0 -44.9996,55.3419 -44.9996,55.3419 -11.7451,11.7725 -21.0696,20.3543 -31.2192,33.8322 -3.4383,4.5935 -9.3245,11.0024 -9.1045,17.0537 0.3301,9.4345 18.3465,19.6942 25.718,24.5077 0,0 28.8537,15.6234 28.8537,15.6234 25.663,17.9338 30.1465,26.4332 49.7582,48.1078 7.3441,-4.9785 11.9926,2.9432 17.2737,8.0868 16.5861,16.1184 19.3917,13.5879 32.2369,35.9227 0,0 0,-5.5012 0,-5.5012 0,0 2.7506,0 2.7506,0 0,0 17.0812,22.0047 17.0812,22.0047 16.0359,22.4998 9.9571,19.6942 33.5847,46.76 13.9455,15.9535 23.105,19.3092 35.5651,37.7381 11.8826,17.5488 6.4639,18.264 15.0733,31.1367 0,0 14.8256,19.1441 14.8256,19.1441 0,0 33.7773,55.2594 33.7773,55.2594 0,0 28.7712,43.7619 28.7712,43.7619 0,0 16.6961,33.0071 16.6961,33.0071 0,0 15.3207,24.7553 15.3207,24.7553 0,0 11.415,30.2565 11.415,30.2565 0,0 27.2033,49.5106 27.2033,49.5106 0,0 7.6192,19.2541 7.6192,19.2541 0,0 25.993,49.5107 25.993,49.5107 0,0 20.0794,35.7576 20.0794,35.7576 5.006,13.9455 4.5109,31.1092 11.91,44.0095 13.1478,22.8849 44.9447,63.9787 39.9111,90.7695 15.1282,5.3086 16.5035,22.3348 23.215,35.7577 17.9613,35.9227 32.4844,50.1982 48.3003,90.7694 0,0 0,-5.5011 0,-5.5011 0,0 2.7506,0 2.7506,0 10.5073,21.262 28.5787,41.3413 24.7553,66.0141 0,0 5.5012,-5.5012 5.5012,-5.5012 0,0 2.7506,0 2.7506,0 24.5903,43.8169 26.8733,34.1074 53.6365,66.2618 15.3483,18.4289 31.3567,36.0052 50.8859,50.3358 0,0 49.5107,27.6709 49.5107,27.6709 0,0 24.7553,15.8434 24.7553,15.8434 22.6373,12.3502 93.7676,40.2962 118.2754,45.1372 0,0 55.0118,3.7408 55.0118,3.7408 0,0 57.7624,0 57.7624,0 0,0 24.7553,-1.6779 24.7553,-1.6779 24.2052,0.4951 32.2644,-4.0433 52.2612,-6.0513 0,0 60.513,-7.234 60.513,-7.234 15.0732,-3.0807 19.0891,-7.9767 30.2565,-10.9749 0,0 16.5035,-3.0256 16.5035,-3.0256 0,0 19.2542,-6.0238 19.2542,-6.0238 9.2144,-1.6229 15.7883,0.4401 27.5059,-2.8881 0,0 30.2565,-12.5977 30.2565,-12.5977 0,0 38.5082,-9.4071 38.5082,-9.4071 0,0 41.2589,-5.9962 41.2589,-5.9962 27.3959,-7.8117 52.6738,-18.4565 78.1718,-30.7516 0,0 15.3483,-5.4462 15.3483,-5.4462 0,0 44.0094,-25.0579 44.0094,-25.0579 8.3068,-2.5855 12.1851,0.6326 24.7553,-2.8331 36.5554,-10.0672 25.1954,-14.3581 63.2636,-12.3777 35.2626,1.8429 47.3927,41.6715 46.7325,70.8828 -0.3301,14.193 -3.7408,33.0346 -15.4583,42.4416 -5.9413,4.7585 -49.8682,11.58 -58.7801,11.4424 -18.3189,-0.3025 -27.8635,6.4089 -44.0095,10.7823 0,0 -49.5106,11.2225 -49.5106,11.2225 0,0 -44.0094,15.9259 -44.0094,15.9259 0,0 -35.7577,11.6625 -35.7577,11.6625 0,0 -49.5106,8.5268 -49.5106,8.5268 0,0 -55.0118,17.0262 -55.0118,17.0262 0,0 -34.9876,14.7431 -34.9876,14.7431 0,0 -28.276,2.8881 -28.276,2.8881 0,0 -33.0071,8.967 -33.0071,8.967 0,0 -22.0047,0 -22.0047,0 0,0 -24.7553,6.1063 -24.7553,6.1063 0,0 -38.5083,4.0709 -38.5083,4.0709 -36.9404,4.5659 -60.9806,10.6997 -99.0213,8.3342 0,0 -35.7576,2.6131 -35.7576,2.6131 -25.3605,0.9627 -73.2208,-8.8844 -99.0213,-14.4406 0,0 -33.0071,-4.2909 -33.0071,-4.2909 -28.0285,-6.849 -87.1387,-28.2486 -112.7742,-41.1764 0,0 -30.2565,-18.0988 -30.2565,-18.0988 -15.8434,-8.6369 -31.2742,-16.5036 -45.7423,-27.6435 0,0 -17.6313,-18.0989 -17.6313,-18.0989 0,0 -14.9907,-10.8648 -14.9907,-10.8648 0,0 -12.7902,-13.6154 -12.7902,-13.6154 0,0 -35.6477,-32.8696 -35.6477,-32.8696 0,0 -60.0729,-80.9223 -60.0729,-80.9223 0,0 -14.8807,-27.3959 -14.8807,-27.3959 0,0 -14.5781,-19.6117 -14.5781,-19.6117 0,0 -15.6234,-30.009 -15.6234,-30.009 0,0 -36.5828,-63.2635 -36.5828,-63.2635 0,0 -23.7376,-52.2613 -23.7376,-52.2613 0,0 -91.9522,-192.5413 -91.9522,-192.5413 0,0 -27.5885,-63.2636 -27.5885,-63.2636 0,0 -11.2499,-27.5059 -11.2499,-27.5059 -28.7437,-57.8999 -62.9885,-113.2693 -97.6459,-167.786 0,0 -36.5829,-57.7624 -36.5829,-57.7624 0,0 -27.4509,-30.2565 -27.4509,-30.2565 0,0 -17.6588,-27.3959 -17.6588,-27.3959 -14.248,-19.1166 -54.1591,-65.244 -71.4878,-79.0794 0,0 -19.2541,-12.5152 -19.2541,-12.5152 -23.4626,-17.4388 -65.07897,-47.7778 -93.52007,-54.7093 -25.85555,-6.2988 -43.89943,8.6644 -66.01417,20.932 -18.81404,10.4523 -17.6863,12.7353 -32.89706,24.5628 0,0 -42.05653,36.1978 -42.05653,36.1978 0,0 -13.06531,11.0023 -13.06531,11.0023 0,0 -20.65693,25.2229 -20.65693,25.2229 -5.77624,6.4639 -10.12217,9.4071 -14.9082,17.3013 0,0 -11.69001,27.4784 -11.69001,27.4784 0,0 -35.62014,68.7647 -35.62014,68.7647 -9.65458,22.2523 -6.43638,28.6337 -9.87462,38.5083 0,0 -16.36602,35.7577 -16.36602,35.7577 -10.56226,23.6275 -21.53712,29.8989 -27.0658,49.5106 -7.8942,28.0835 -0.82518,30.7791 -2.55805,52.2612 0,0 -5.69373,46.76 -5.69373,46.76 0,0 -6.57391,24.7554 -6.57391,24.7554 0,0 -4.48346,46.76 -4.48346,46.76 0,0 -33.39217,82.5177 -33.39217,82.5177 0,0 -38.94822,85.2683 -38.94822,85.2683 0,0 -14.96321,30.2565 -14.96321,30.2565 0,0 -19.36416,24.6453 -19.36416,24.6453 0,0 -24.12267,33.0071 -24.12267,33.0071 -16.55856,19.1716 -48.46541,52.8663 -68.54472,67.1694 0,0 -35.29007,23.3525 -35.29007,23.3525 -12.35015,8.6919 -10.2322,11.69 -30.7241,20.4369 0,0 -35.75767,11.8 -35.75767,11.8 0,0 -16.50354,2.4755 -16.50354,2.4755 0,0 -24.75532,9.7096 -24.75532,9.7096 0,0 -35.75767,0 -35.75767,0 -21.23456,-0.3575 -52.48126,-8.7193 -60.51299,-30.3115 0,0 8.25177,-2.7506 8.25177,-2.7506 -14.52311,-20.4644 7.94921,-32.677 20.79447,-45.0271 5.96878,-5.7488 11.33243,-14.1106 18.1814,-18.2364 6.82146,-4.0984 37.7656,-15.8159 46.29243,-17.4113 13.75295,-2.613 22.44482,0.3576 38.50827,-7.6191 47.91528,-23.7651 92.36482,-72.4781 122.51129,-116.0199 0,0 20.51941,-34.9875 20.51941,-34.9875 0,0 8.25177,2.7506 8.25177,2.7506 -1.23777,-12.1576 -1.70537,-20.1894 11.00236,-24.7553 -4.48346,-23.7651 18.89656,-66.0142 25.88306,-90.7695 0,0 8.80189,-30.2565 8.80189,-30.2565 3.68579,-17.0812 2.88812,-34.9875 4.07087,-52.2612 0,0 5.25363,-60.513 5.25363,-60.513 0,0 8.25177,2.7506 8.25177,2.7506 -6.43638,-44.6971 2.338,-32.5945 2.77809,-66.0142 0,0 0,-107.273 0,-107.273 0,0 2.58556,-24.7553 2.58556,-24.7553 0,0 0,-30.2565 0,-30.2565 0,0 -2.61306,-46.7601 -2.61306,-46.7601 0,0 2.75059,-27.5059 2.75059,-27.5059 0,0 0,-68.7647 0,-68.7647 0,0 0,-33.0071 0,-33.0071 -1.8429,-12.8178 -5.83125,-18.8416 -5.00608,-33.0071 1.81539,-30.7516 -2.86061,-33.8598 -5.52868,-60.513 0,0 -5.85876,-57.7624 -5.85876,-57.7624 0,0 0,-24.7553 0,-24.7553 0,0 -9.51704,-85.2683 -9.51704,-85.2683 0,0 -19.06159,-101.7719 -19.06159,-101.7719 -9.51705,-30.0364 -25.80054,-55.3968 -28.74367,-88.0188 -1.23777,-13.643 3.98835,-17.3563 4.23591,-25.9106 0.52261,-17.1087 -2.3105,-22.8574 7.67414,-39.9936 6.82147,-11.7175 13.14782,-14.8532 22.22477,-23.38 5.41867,-5.0886 11.46997,-12.4327 17.57628,-16.3385 6.05129,-3.8784 33.77725,-11.0574 40.70873,-8.2518 3.7133,1.4853 23.93,22.5824 26.43304,26.3232 8.69187,13.0653 -0.49511,26.4881 18.12639,38.0406 5.6112,31.0817 16.44853,26.4607 16.7511,60.513 0,0 0,57.7624 0,57.7624 1.98042,16.311 5.72122,17.3837 5.1436,38.5083 -0.63264,23.9576 2.22798,48.2178 5.52869,71.9829 0,0 5.17111,18.7591 5.17111,18.7591 0,0 0,14.7156 0,14.7156 0,0 5.17111,13.2854 5.17111,13.2854 0,0 0,16.0359 0,16.0359 0,0 6.10631,46.76 6.10631,46.76 0,0 0,38.5083 0,38.5083 0.19254,23.8476 1.98042,15.4583 4.92355,33.0071 0,0 4.09838,38.5083 4.09838,38.5083 0,0 0,44.0094 0,44.0094 -0.19254,12.4327 -5.69372,28.6887 10.64479,34.7125 8.00422,2.9431 17.41123,-3.4108 24.48025,-6.9315 0,0 64.03375,-42.6617 64.03375,-42.6617 0,0 70.63516,-43.7619 70.63516,-43.7619 0,0 22.3898,-18.704 22.3898,-18.704 18.70402,-11.8275 21.48211,-7.6741 29.26628,-12.8728 0,0 25.47047,-24.4527 25.47047,-24.4527 0,0 21.53712,-16.4485 21.53712,-16.4485 0,0 34.18984,-33.1447 34.18984,-33.1447 11.30493,-10.3422 9.48954,-2.558 27.56092,-22.7748 18.78648,-21.0146 36.52778,-42.9368 52.72878,-66.0142 10.7823,-15.3758 5.3086,-23.0225 26.2681,-24.7553 z m 1405.5517,-338.3226 c -4.2359,-12.6253 -9.2695,-11.9651 -16.6411,-22.1423 -23.2149,-32.0719 -27.8359,-37.463 -60.3754,-59.6603 -6.1613,-4.2359 -23.9852,-20.57445 -31.2467,-14.96325 -4.1259,3.19075 -2.7781,9.92965 -1.8979,14.24805 3.5482,20.877 4.5109,16.9162 0,38.5083 13.1753,13.2303 6.9865,24.5353 5.6387,41.2589 -17.8514,3.7958 -16.5586,26.2681 -18.429,41.2588 0,0 0,77.0166 0,77.0166 0,0 0,52.2612 0,52.2612 0,0 0,24.7553 0,24.7553 0,0 0,22.4723 0,22.4723 0,0 4.4285,21.5371 4.4285,21.5371 0,0 0,30.2565 0,30.2565 0,0 5.8587,49.5106 5.8587,49.5106 0,0 0,41.2589 0,41.2589 0,0 2.3655,24.7553 2.3655,24.7553 0,0 0,38.5083 0,38.5083 0,0 8.2243,27.5059 8.2243,27.5059 0,0 0,30.2565 0,30.2565 0,0 5.5837,33.0071 5.5837,33.0071 0,0 0,30.2565 0,30.2565 0.2476,25.0578 8.7744,49.4831 5.7212,74.2659 15.7334,15.8709 12.7353,57.4048 17.6588,79.7671 0,0 8.4443,33.0071 8.4443,33.0071 0,0 3.5758,22.0047 3.5758,22.0047 0,0 8.4168,24.5078 8.4168,24.5078 0,0 1.6779,16.9986 1.6779,16.9986 0,0 8.4718,37.7932 8.4718,37.7932 0,0 7.2065,17.0811 7.2065,17.0811 7.1791,24.6178 3.7133,28.1111 15.6509,54.9018 8.4993,19.0891 26.4882,55.5344 44.4495,66.4268 16.091,9.737 43.0743,3.3832 57.7349,-6.574 22.3348,-15.1282 19.5567,-17.9613 33.8873,-33.8597 11.0299,-12.2126 39.4985,-43.4318 46.6775,-56.2771 4.5935,-8.2243 5.2811,-13.5329 8.0592,-21.9772 6.6015,-20.1618 20.3269,-38.7283 29.7614,-57.7624 0,0 8.9394,-22.0047 8.9394,-22.0047 7.8942,-15.8434 11.8826,-10.5623 11.9376,-30.3666 0.028,-18.2364 8.5819,-30.394 12.4602,-46.65 1.8154,-9.7921 -0.2201,-15.2657 0,-24.7553 0,0 5.0611,-71.5153 5.0611,-71.5153 0,0 -5.5012,-82.5177 -5.5012,-82.5177 -0.082,-59.8254 -23.9026,-90.577 -27.5059,-129.2778 0,0 -5.5012,5.5012 -5.5012,5.5012 -5.6662,-41.919 -37.6556,-96.3257 -56.7447,-134.7789 0,0 -18.1539,-44.0095 -18.1539,-44.0095 0,0 -42.9092,-88.0189 -42.9092,-88.0189 0,0 -12.7627,-24.7553 -12.7627,-24.7553 0,0 -16.0085,-22.0047 -16.0085,-22.0047 0,0 -9.8471,-19.0066 -9.8471,-19.0066 -14.9357,-21.8122 -19.3916,-14.9357 -30.614,-47.0076 -11.7726,2.0355 -14.9357,-5.3086 -22.0048,-13.7529 0,0 8.2518,2.7506 8.2518,2.7506 z M 1178.9233,998.45355 c 0,0 -2.7506,0 -2.7506,0 0,0 2.7506,2.75065 2.7506,2.75065 0,0 0,-2.75065 0,-2.75065 z m 33.0071,16.50355 c 0,0 -2.7506,0 -2.7506,0 0,0 2.7506,2.7506 2.7506,2.7506 0,0 0,-2.7506 0,-2.7506 z m 525.3627,35.7577 c -10.4797,-3.1907 -9.5995,-8.3618 -17.5212,-13.863 -7.7842,-4.2359 -26.3232,-6.6289 -33.8873,0 -6.3264,4.4285 -8.4718,17.1637 -10.9474,24.8654 0,0 -18.0989,74.2659 -18.0989,74.2659 0,0 -4.6485,16.256 -4.6485,16.256 0,0 -5.5561,38.7558 -5.5561,38.7558 0,0 -10.3423,57.7624 -10.3423,57.7624 0,0 -6.6289,71.5154 -6.6289,71.5154 -3.1632,25.2504 -5.6112,2.7506 -5.1436,44.0094 0.3851,35.1526 -7.9217,22.5824 -10.1222,49.5106 0,0 1.8704,30.2565 1.8704,30.2565 0.3301,28.6887 -3.1081,28.9087 -4.4834,49.5107 -0.9902,14.8531 -3.0257,38.8933 12.9828,46.65 6.1613,2.7231 17.2462,0.1925 24.5077,0 0,0 27.5059,1.5678 27.5059,1.5678 0,0 38.5083,-6.7939 38.5083,-6.7939 0,0 38.5083,0 38.5083,0 12.2401,0.9902 16.3385,3.0256 30.2565,2.4755 0,0 49.5106,-7.6467 49.5106,-7.6467 0,0 52.2612,-3.7133 52.2612,-3.7133 0,0 22.0047,-4.2084 22.0047,-4.2084 19.0066,-2.723 39.1134,-1.0177 57.7624,-6.3263 0,0 -14.248,-63.2636 -14.248,-63.2636 0,0 -6.739,-19.2541 -6.739,-19.2541 0,0 -9.8196,-38.5083 -9.8196,-38.5083 -17.2737,-57.7899 -42.029,-120.8059 -71.6254,-173.2872 0,0 -19.6117,-30.2565 -19.6117,-30.2565 0,0 -17.5487,-22.0047 -17.5487,-22.0047 0,0 -28.5237,-46.76 -28.5237,-46.76 0,0 -60.1829,-71.5154 -60.1829,-71.5154 z M 551.78885,1160.7384 c 0,0 -2.75059,0 -2.75059,0 0,0 2.75059,2.7506 2.75059,2.7506 0,0 0,-2.7506 0,-2.7506 z m 22.00472,0 c 0,0 -2.75059,0 -2.75059,0 0,0 2.75059,2.7506 2.75059,2.7506 0,0 0,-2.7506 0,-2.7506 z m 11.00223,11.0024 c 0,0 -2.75046,0 -2.75046,0 0,0 2.75046,2.7506 2.75046,2.7506 0,0 0,-2.7506 0,-2.7506 z m 1479.8176,225.5484 c 0,0 -2.7506,0 -2.7506,0 0,0 2.7506,2.7506 2.7506,2.7506 0,0 0,-2.7506 0,-2.7506 z m -1001.2149,49.5106 c 0,0 -2.7506,0 -2.7506,0 0,0 2.7506,2.7506 2.7506,2.7506 0,0 0,-2.7506 0,-2.7506 z m 1724.6201,19.2542 c 0,0 -2.7505,0 -2.7505,0 0,0 2.7505,2.7505 2.7505,2.7505 0,0 0,-2.7505 0,-2.7505 z m -101.7718,8.2517 c 0,0 -2.7506,0 -2.7506,0 0,0 2.7506,2.7506 2.7506,2.7506 0,0 0,-2.7506 0,-2.7506 z M 873.60779,1631.0894 c 0,0 -2.75059,0 -2.75059,0 0,0 2.75059,2.7506 2.75059,2.7506 0,0 0,-2.7506 0,-2.7506 z m -5.50118,8.2518 c 0,0 -2.7506,0 -2.7506,0 0,0 2.7506,2.7505 2.7506,2.7505 0,0 0,-2.7505 0,-2.7505 z m 1848.39669,159.5342 c 0,0 -2.7506,0 -2.7506,0 0,0 2.7506,2.7506 2.7506,2.7506 0,0 0,-2.7506 0,-2.7506 z m -2032.68625,228.299 c 0,0 -2.75059,0 -2.75059,0 0,0 2.75059,2.7506 2.75059,2.7506 0,0 0,-2.7506 0,-2.7506 z m 891.19125,423.5909 c 0,0 -2.7506,0 -2.7506,0 0,0 2.7506,2.7506 2.7506,2.7506 0,0 0,-2.7506 0,-2.7506 z m 1001.2149,214.5461 c 0,0 -2.7506,0 -2.7506,0 0,0 2.7506,2.7506 2.7506,2.7506 0,0 0,-2.7506 0,-2.7506 z"
     style="fill:#000000;fill-opacity:1" />
</svg>
